# xmcd CD database file
#
# Track frame offsets:
#	150
#	18480
#	37527
#	52327
#	67907
#	84462
#	100360
#	118510
#	137127
#	154522
#
# Disc length: 2308 seconds
#
# Revision: 0
# Processed by: cddbd v1.5.1PL0 Copyright (c) Steve Scherf et al.
# Submitted via: CDex 1.51
#
DISCID=7909020a
DTITLE=高橋良明 - 夢で逢えるさ！
DYEAR=1989
DGENRE=Pop
TTITLE0=天使の反乱
TTITLE1=Let's Dance
TTITLE2=恋の3-2-1
TTITLE3=マドンナをおとせ
TTITLE4=ヴィーナスの失敗
TTITLE5=STAND UP!
TTITLE6=悲しきバッド・ボーイ
TTITLE7=突然…KISS!
TTITLE8=抱きしめて…サンライズ
TTITLE9=夢で逢えるさ!
EXTD=YEAR: 1989
EXTT0=
EXTT1=
EXTT2=
EXTT3=
EXTT4=
EXTT5=
EXTT6=
EXTT7=
EXTT8=
EXTT9=
PLAYORDER=
